<svg width="70" height="23" viewBox="0 0 70 23" fill="none" xmlns="http://www.w3.org/2000/svg">
<g clip-path="url(#clip0_140_688)">
<path d="M70 19.8033C70 20.6237 69.6742 21.4106 69.0942 21.9909C68.5142 22.5711 67.7275 22.8973 66.907 22.8977H3.09435C2.27379 22.8973 1.48694 22.5712 0.906716 21.9909C0.326491 21.4107 0.00036268 20.6239 0 19.8033V3.09435C0 2.27367 0.326011 1.48661 0.906315 0.90631C1.48662 0.326006 2.27368 -4.88758e-06 3.09435 -4.88758e-06H66.907C67.3133 -4.92735e-06 67.7156 0.0800476 68.091 0.23557C68.4663 0.391093 68.8073 0.619038 69.0946 0.906394C69.3818 1.19375 69.6096 1.53488 69.7649 1.9103C69.9203 2.28571 70.0002 2.68806 70 3.09435V19.8033Z" fill="#231F20"/>
<path d="M12.0927 3.9155H6.38712C6.06044 3.9155 5.74715 4.04527 5.51616 4.27626C5.28517 4.50725 5.1554 4.82054 5.1554 5.14722V17.7806C5.1554 18.1072 5.28517 18.4205 5.51616 18.6515C5.74715 18.8825 6.06044 19.0123 6.38712 19.0123H12.0927C12.4194 19.0123 12.7327 18.8825 12.9637 18.6515C13.1947 18.4205 13.3244 18.1072 13.3244 17.7806V5.1527C13.3252 4.99048 13.2938 4.82972 13.2323 4.67965C13.1707 4.52958 13.0801 4.39315 12.9656 4.2782C12.8512 4.16324 12.7151 4.07202 12.5653 4.00978C12.4155 3.94754 12.2549 3.9155 12.0927 3.9155ZM9.23923 18.1172C9.07682 18.1172 8.91806 18.0691 8.78303 17.9788C8.64799 17.8886 8.54274 17.7604 8.48059 17.6103C8.41844 17.4603 8.40218 17.2952 8.43386 17.1359C8.46555 16.9766 8.54375 16.8303 8.65859 16.7154C8.77343 16.6006 8.91975 16.5224 9.07903 16.4907C9.23832 16.459 9.40343 16.4753 9.55347 16.5374C9.70352 16.5996 9.83176 16.7048 9.92199 16.8399C10.0122 16.9749 10.0604 17.1337 10.0604 17.2961C10.0604 17.5139 9.97386 17.7227 9.81987 17.8767C9.66587 18.0307 9.45701 18.1172 9.23923 18.1172ZM12.3555 16.0644H6.12161V6.74708H12.3555V16.0644Z" fill="white"/>
<path d="M17.9982 6.16681L17.6506 7.21651H17.2058L18.339 3.88402H18.8591L19.9977 7.22062H19.5379L19.1807 6.17092L17.9982 6.16681ZM19.0931 5.83014L18.7619 4.87213C18.6921 4.65316 18.6428 4.46157 18.5922 4.26312H18.5785C18.5333 4.45609 18.4786 4.66411 18.4143 4.86666L18.0885 5.83151L19.0931 5.83014Z" fill="white"/>
<path d="M20.4411 4.82013L20.9105 6.16271C20.9856 6.36551 21.0505 6.57196 21.1048 6.7813H21.1254C21.1787 6.58286 21.2485 6.38442 21.3279 6.16271L21.7932 4.82013H22.249L21.3074 7.21651H20.8968L19.9867 4.82013H20.4411Z" fill="white"/>
<path d="M24.2512 6.64307C24.2486 6.83484 24.2605 7.02652 24.2868 7.2165H23.8954L23.8557 6.91542H23.8406C23.7557 7.02908 23.6448 7.12072 23.5172 7.18263C23.3895 7.24455 23.2489 7.27494 23.1071 7.27125C23.0133 7.27783 22.9191 7.26501 22.8305 7.23358C22.7418 7.20215 22.6606 7.1528 22.5919 7.08858C22.5232 7.02437 22.4685 6.94669 22.4311 6.86039C22.3938 6.77408 22.3746 6.681 22.3749 6.58696C22.3749 6.00805 22.8895 5.69054 23.816 5.69602V5.64675C23.816 5.44831 23.7612 5.087 23.2686 5.09248C23.046 5.09003 22.8274 5.1518 22.639 5.27039L22.5405 4.97751C22.7813 4.83876 23.0549 4.76694 23.3329 4.76949C24.0705 4.76949 24.2485 5.27039 24.2485 5.75076L24.2512 6.64307ZM23.8256 5.99437C23.3493 5.98342 22.8101 6.06827 22.8101 6.53359C22.8058 6.5886 22.8134 6.6439 22.8325 6.69568C22.8516 6.74745 22.8817 6.79447 22.9207 6.8335C22.9598 6.87252 23.0068 6.90262 23.0586 6.92172C23.1103 6.94083 23.1656 6.94848 23.2207 6.94416C23.3487 6.94823 23.4748 6.91162 23.5808 6.83958C23.6868 6.76753 23.7672 6.66377 23.8105 6.54317C23.8234 6.49869 23.8298 6.45261 23.8297 6.40631L23.8256 5.99437Z" fill="white"/>
<path d="M25.1326 4.37945C25.0586 4.37818 24.988 4.34754 24.9366 4.29429C24.8851 4.24103 24.8569 4.16951 24.8582 4.09546C24.8595 4.02142 24.8901 3.95091 24.9434 3.89945C24.9966 3.84799 25.0681 3.81979 25.1422 3.82106C25.2148 3.82106 25.2844 3.84991 25.3357 3.90124C25.3871 3.95257 25.4159 4.02219 25.4159 4.09478C25.417 4.13211 25.4105 4.16929 25.3968 4.20401C25.383 4.23872 25.3623 4.27026 25.3358 4.29667C25.3094 4.32308 25.2779 4.3438 25.2432 4.35757C25.2085 4.37133 25.1713 4.37784 25.134 4.37671L25.1326 4.37945ZM24.9246 7.2165V4.82013H25.3598V7.2165H24.9246Z" fill="white"/>
<path d="M26.0522 3.702H26.4888V7.21651H26.0522V3.702Z" fill="white"/>
<path d="M28.8797 6.64307C28.8779 6.83482 28.8898 7.02646 28.9153 7.2165H28.5239L28.4842 6.91542H28.4692C28.3844 7.02889 28.2737 7.12041 28.1463 7.18231C28.0189 7.24422 27.8786 7.27472 27.737 7.27125C27.6431 7.27803 27.5488 7.26535 27.46 7.23401C27.3712 7.20267 27.2898 7.15335 27.2209 7.08912C27.1521 7.02489 27.0972 6.94713 27.0598 6.86073C27.0224 6.77432 27.0032 6.68112 27.0034 6.58696C27.0034 6.00805 27.5194 5.69054 28.4445 5.69602V5.64675C28.4445 5.44831 28.3898 5.087 27.8971 5.09248C27.6749 5.08998 27.4568 5.15177 27.2689 5.27039L27.169 4.97751C27.41 4.83895 27.6835 4.76713 27.9614 4.76949C28.6991 4.76949 28.877 5.27039 28.877 5.75076L28.8797 6.64307ZM28.4541 5.99436C27.9792 5.98342 27.4386 6.06827 27.4386 6.53358C27.4343 6.5886 27.442 6.6439 27.4611 6.69568C27.4802 6.74745 27.5103 6.79447 27.5493 6.8335C27.5883 6.87252 27.6353 6.90262 27.6871 6.92172C27.7389 6.94083 27.7942 6.94848 27.8492 6.94416C27.9773 6.94823 28.1034 6.91162 28.2093 6.83958C28.3153 6.76753 28.3957 6.66376 28.4391 6.54317C28.4526 6.49883 28.459 6.45265 28.4582 6.40631L28.4541 5.99436Z" fill="white"/>
<path d="M29.553 3.702H29.9896V5.20743H29.9992C30.0824 5.06599 30.2032 4.95035 30.3482 4.8733C30.4931 4.79625 30.6565 4.76079 30.8203 4.77086C31.4143 4.77086 31.8303 5.26629 31.8303 5.9889C31.8303 6.8511 31.2829 7.27672 30.7505 7.27672C30.5879 7.28535 30.4262 7.24761 30.2842 7.1679C30.1423 7.08818 30.0258 6.96978 29.9485 6.82646H29.939L29.9143 7.22199H29.538C29.553 7.05912 29.5571 6.81141 29.5571 6.60339L29.553 3.702ZM29.9896 6.25714C29.989 6.30999 29.994 6.36275 30.0046 6.41452C30.0412 6.5601 30.1252 6.68934 30.2434 6.7818C30.3617 6.87426 30.5074 6.92464 30.6575 6.925C31.1187 6.925 31.3855 6.55412 31.3855 6.00395C31.3855 5.5181 31.1378 5.10753 30.6725 5.10753C30.5186 5.10968 30.3699 5.16367 30.2504 5.26077C30.131 5.35787 30.0478 5.4924 30.0142 5.64264C29.9977 5.70235 29.9894 5.76406 29.9896 5.82603V6.25714Z" fill="white"/>
<path d="M32.3477 3.702H32.7829V7.21651H32.3477V3.702Z" fill="white"/>
<path d="M33.7272 6.09291C33.7368 6.68277 34.1077 6.925 34.5484 6.925C34.7755 6.9313 35.0014 6.89077 35.2121 6.80593L35.2901 7.1125C35.0367 7.21989 34.7633 7.27214 34.4882 7.26578C33.756 7.26578 33.3098 6.77583 33.3098 6.05869C33.3098 5.34156 33.7409 4.76128 34.4389 4.76128C35.2203 4.76128 35.4243 5.44557 35.4243 5.89035C35.4255 5.96001 35.4205 6.02963 35.4092 6.09838L33.7272 6.09291ZM35 5.78087C35 5.50715 34.885 5.07332 34.4006 5.07332C33.9544 5.07332 33.7669 5.48389 33.7313 5.78087H35Z" fill="white"/>
<path d="M37.9356 7.27125C37.291 7.27125 36.786 6.79636 36.786 6.03953C36.786 5.23755 37.317 4.76676 37.9753 4.76676C38.6596 4.76676 39.1276 5.26766 39.1276 5.99848C39.1276 6.88942 38.509 7.27536 37.9397 7.27536L37.9356 7.27125ZM37.9507 6.94416C38.3612 6.94416 38.6774 6.55412 38.6774 6.00943C38.6774 5.59885 38.4748 5.09248 37.9603 5.09248C37.4457 5.09248 37.2267 5.56737 37.2267 6.02311C37.2267 6.54864 37.5237 6.94416 37.9452 6.94416H37.9507Z" fill="white"/>
<path d="M39.6532 5.46883C39.6532 5.21702 39.6532 5.01857 39.6327 4.82013H40.02L40.0446 5.21154H40.0542C40.1337 5.07257 40.2494 4.95771 40.3889 4.87916C40.5284 4.80061 40.6866 4.7613 40.8466 4.76538C41.1778 4.76538 41.6938 4.96383 41.6938 5.78635V7.2165H41.2572V5.83561C41.2572 5.44967 41.1135 5.12258 40.7029 5.12258C40.536 5.129 40.3783 5.20047 40.2635 5.32171C40.1486 5.44295 40.0858 5.60431 40.0884 5.77128V7.2165H39.6532V5.46883Z" fill="white"/>
<path d="M43.9259 4.2467V4.82013H44.5486V5.1527H43.9259V6.44463C43.9259 6.74162 44.0094 6.90995 44.2516 6.90995C44.3371 6.91371 44.4226 6.90355 44.5048 6.87984L44.524 7.2124C44.3998 7.25264 44.2699 7.27251 44.1394 7.27125C44.0524 7.27523 43.9655 7.2611 43.8842 7.22977C43.803 7.19844 43.7291 7.15058 43.6672 7.08923C43.5495 6.95237 43.5003 6.74161 43.5003 6.45969V5.1527H43.1294V4.82013H43.5003V4.37945L43.9259 4.2467Z" fill="white"/>
<path d="M45.0153 3.702H45.4505V5.19649H45.46C45.5328 5.06673 45.6411 4.96038 45.7721 4.88992C45.9063 4.80777 46.0608 4.76465 46.2182 4.76539C46.5399 4.76539 47.0544 4.96383 47.0544 5.79045V7.21651H46.6192V5.84109C46.6192 5.44967 46.4824 5.12669 46.0636 5.12669C45.9331 5.13007 45.807 5.1739 45.7025 5.25211C45.5981 5.33032 45.5205 5.43905 45.4806 5.56327C45.4566 5.62988 45.4464 5.70063 45.4505 5.77129V7.21651H45.0153V3.702Z" fill="white"/>
<path d="M47.985 6.09291C47.9946 6.68277 48.3669 6.925 48.8062 6.925C49.0332 6.9313 49.2592 6.89077 49.4699 6.80593L49.5493 7.1125C49.2954 7.21984 49.0216 7.27208 48.7459 7.26578C48.0138 7.26578 47.569 6.77583 47.569 6.05869C47.569 5.34156 47.9987 4.76128 48.698 4.76128C49.4795 4.76128 49.6834 5.44557 49.6834 5.89035C49.6847 5.96001 49.6796 6.02963 49.6684 6.09838L47.985 6.09291ZM49.2578 5.78087C49.2578 5.50715 49.1442 5.07332 48.6584 5.07332C48.2136 5.07332 48.0247 5.48389 47.9905 5.78087H49.2578Z" fill="white"/>
<path d="M51.427 4.37945C51.353 4.37818 51.2825 4.34754 51.231 4.29429C51.1796 4.24103 51.1514 4.16951 51.1526 4.09546C51.1539 4.02142 51.1845 3.95091 51.2378 3.89945C51.291 3.84799 51.3626 3.81979 51.4366 3.82106C51.5092 3.82106 51.5788 3.84991 51.6302 3.90124C51.6815 3.95257 51.7103 4.02219 51.7103 4.09478C51.7115 4.13211 51.7049 4.16929 51.6912 4.20401C51.6774 4.23872 51.6567 4.27026 51.6303 4.29667C51.6039 4.32308 51.5723 4.3438 51.5376 4.35757C51.5029 4.37133 51.4657 4.37784 51.4284 4.37671L51.427 4.37945ZM51.2176 7.2165V4.82013H51.6542V7.2165H51.2176Z" fill="white"/>
<path d="M52.3673 3.92371C52.6384 3.87613 52.9132 3.85323 53.1884 3.85528C53.6141 3.85528 53.9261 3.95382 54.1232 4.129C54.2208 4.21655 54.2981 4.32439 54.3496 4.44496C54.4012 4.56553 54.4257 4.69592 54.4215 4.82698C54.4281 4.9572 54.4082 5.0874 54.363 5.20972C54.3179 5.33203 54.2484 5.44393 54.1588 5.53864C53.9302 5.78224 53.5593 5.90542 53.1392 5.90542C53.0226 5.90864 52.906 5.899 52.7916 5.87667V7.21241H52.3618L52.3673 3.92371ZM52.797 5.52632C52.9141 5.55328 53.0341 5.56524 53.1542 5.5619C53.6784 5.5619 53.9904 5.30461 53.9904 4.85435C53.9904 4.40409 53.6784 4.19606 53.2035 4.19606C53.0659 4.19454 52.9284 4.206 52.7929 4.23028L52.797 5.52632Z" fill="white"/>
<path d="M54.936 3.702H55.3726V5.19649H55.3822C55.455 5.06673 55.5632 4.96038 55.6942 4.88992C55.8285 4.80777 55.983 4.76465 56.1404 4.76539C56.462 4.76539 56.9766 4.96383 56.9766 5.79045V7.21651H56.5414V5.84109C56.5414 5.44967 56.4045 5.12669 55.9857 5.12669C55.8553 5.13007 55.7291 5.1739 55.6247 5.25211C55.5202 5.33032 55.4427 5.43905 55.4027 5.56327C55.3781 5.62971 55.3679 5.7006 55.3726 5.77129V7.21651H54.936V3.702Z" fill="white"/>
<path d="M58.6353 7.27125C57.9921 7.27125 57.4857 6.79636 57.4857 6.03953C57.4857 5.23755 58.0167 4.76676 58.675 4.76676C59.3593 4.76676 59.8274 5.26766 59.8274 5.99848C59.8274 6.88942 59.2088 7.27536 58.6408 7.27536L58.6353 7.27125ZM58.6504 6.94416C59.061 6.94416 59.3785 6.55412 59.3785 6.00943C59.3785 5.59885 59.1745 5.09248 58.66 5.09248C58.1454 5.09248 57.9264 5.56737 57.9264 6.02311C57.9264 6.54864 58.2234 6.94416 58.6449 6.94416H58.6504Z" fill="white"/>
<path d="M60.3529 5.46884C60.3529 5.21702 60.3529 5.01858 60.3337 4.82014H60.7197L60.7443 5.21155H60.7539C60.8335 5.07268 60.9492 4.9579 61.0887 4.87937C61.2282 4.80083 61.3863 4.76145 61.5463 4.76539C61.8775 4.76539 62.3921 4.96384 62.3921 5.78635V7.21651H61.9569V5.83562C61.9569 5.44968 61.8132 5.12259 61.4026 5.12259C61.2702 5.1254 61.142 5.16991 61.0364 5.24976C60.9307 5.32962 60.853 5.44076 60.8141 5.56737C60.7936 5.63339 60.7835 5.70217 60.784 5.77129V7.21651H60.3488L60.3529 5.46884Z" fill="white"/>
<path d="M63.324 6.33163C63.3336 6.92149 63.7045 7.16372 64.1452 7.16372C64.3718 7.17018 64.5974 7.12964 64.8076 7.04466L64.887 7.35122C64.6335 7.45861 64.3601 7.51086 64.085 7.5045C63.3528 7.5045 62.9066 7.01455 62.9066 6.29742C62.9066 5.58028 63.3377 5 64.0357 5C64.8172 5 65.0211 5.68429 65.0211 6.12908C65.0223 6.19873 65.0173 6.26836 65.006 6.3371L63.324 6.33163ZM64.5954 6.01959C64.5954 5.74588 64.4819 5.31204 63.9974 5.31204C63.5512 5.31204 63.3624 5.72261 63.3281 6.01959H64.5954Z" fill="white"/>
<path d="M20.0483 9.4774L17.1127 18.1172H18.458L19.3339 15.4636H22.1764L23.0783 18.1172H24.4592L21.5113 9.47603L20.0483 9.4774ZM20.7449 10.898C20.8448 11.2839 20.9515 11.6849 21.0884 12.1174L21.8808 14.4084H19.6281L20.4082 12.1023C20.5273 11.7287 20.6409 11.325 20.7449 10.898Z" fill="white"/>
<path d="M28.2584 11.7178C27.3675 11.7178 26.6544 12.0613 26.1795 12.7141L26.1275 11.8546H24.9314L24.9396 11.9655C24.9738 12.5006 24.9889 13.0904 24.9889 13.9362V20.5971H26.2959V17.489C26.5199 17.7393 26.796 17.9375 27.1048 18.0697C27.4135 18.2018 27.7475 18.2648 28.0832 18.2541C28.4538 18.2574 28.821 18.1842 29.162 18.0391C29.5029 17.8941 29.8103 17.6803 30.0649 17.411C30.637 16.8061 30.9395 15.9357 30.9395 14.897C30.9395 13.9786 30.6767 13.1835 30.1799 12.6005C29.9441 12.3213 29.6497 12.0974 29.3176 11.9448C28.9855 11.7923 28.6239 11.7147 28.2584 11.7178ZM27.9327 12.8003C29.0987 12.8003 29.6201 13.8801 29.6201 14.949C29.6201 16.3299 28.9536 17.1866 27.8834 17.1866C27.5278 17.1865 27.1826 17.0669 26.9031 16.847C26.6236 16.6271 26.4262 16.3196 26.3424 15.974C26.309 15.8352 26.2933 15.6926 26.2959 15.5498V14.4987C26.301 14.3901 26.3152 14.282 26.3383 14.1757C26.3383 14.1401 26.352 14.1046 26.3561 14.0703C26.4414 13.7141 26.6424 13.3961 26.9277 13.1663C27.213 12.9365 27.5664 12.8078 27.9327 12.8003Z" fill="white"/>
<path d="M34.9905 11.7178C34.1009 11.7178 33.3879 12.0613 32.913 12.7141L32.861 11.8546H31.6635L31.6703 11.9655C31.7059 12.5006 31.7209 13.0904 31.7209 13.9362V20.5971H33.032V17.489C33.2549 17.7385 33.5296 17.9363 33.837 18.0684C34.1443 18.2006 34.4768 18.2639 34.8112 18.2541C35.1819 18.2572 35.5493 18.184 35.8905 18.039C36.2316 17.8939 36.5393 17.6802 36.7942 17.411C37.3663 16.8061 37.6688 15.9357 37.6688 14.897C37.6688 13.9786 37.406 13.1835 36.9078 12.6005C36.6726 12.3217 36.3788 12.0981 36.0475 11.9456C35.7161 11.793 35.3552 11.7153 34.9905 11.7178ZM34.6661 12.8003C35.8308 12.8003 36.3522 13.8801 36.3522 14.949C36.3522 16.3299 35.6871 17.1866 34.6155 17.1866C34.26 17.1864 33.915 17.0667 33.6357 16.8468C33.3565 16.6269 33.1593 16.3195 33.0758 15.974C33.0424 15.8352 33.0268 15.6926 33.0293 15.5498V14.4987C33.0336 14.39 33.0478 14.2819 33.0717 14.1757C33.0717 14.1401 33.084 14.1046 33.0895 14.0703C33.1746 13.714 33.3756 13.3959 33.6609 13.1661C33.9462 12.9362 34.2998 12.8076 34.6661 12.8003Z" fill="white"/>
<path d="M43.4332 13.1383C42.2124 12.6662 41.821 12.2953 41.821 11.6083C41.821 11.0294 42.2809 10.4477 43.3073 10.4477C43.8444 10.4353 44.375 10.5682 44.8428 10.8323L44.9537 10.9007L45.3219 9.80586L45.2493 9.76343C45.0303 9.63479 44.4063 9.33507 43.3456 9.33507C41.6773 9.33507 40.514 10.3204 40.514 11.7287C40.514 12.8646 41.2421 13.6598 42.8078 14.2291C43.9177 14.6397 44.331 15.068 44.331 15.7961C44.331 16.6173 43.6932 17.1319 42.6696 17.1319C42.004 17.1326 41.3513 16.9478 40.785 16.5981L40.6714 16.5256L40.3197 17.641L40.384 17.6848C40.8781 18.0146 41.8073 18.2527 42.5943 18.2527C44.8415 18.2527 45.638 16.8841 45.638 15.7085C45.6311 14.5028 44.992 13.7569 43.4332 13.1383Z" fill="white"/>
<path d="M47.9851 10.367L46.7027 10.7693V11.8546H45.7598V12.9002H46.6986V16.1013C46.6986 16.8746 46.8464 17.4165 47.1516 17.76C47.316 17.9266 47.5134 18.0569 47.7312 18.1425C47.949 18.2281 48.1824 18.267 48.4162 18.2568C48.7592 18.2611 49.1005 18.2084 49.4262 18.1008L49.5001 18.0748L49.4412 17.0224L49.3153 17.0607C49.1177 17.1155 48.9126 17.139 48.7077 17.1305C48.2013 17.1305 47.9851 16.8102 47.9851 16.0575V12.9002H49.5617V11.8546H47.9851V10.367Z" fill="white"/>
<path d="M52.8025 11.7178C50.9727 11.7178 49.6958 13.0863 49.6958 15.0366C49.6958 16.9334 50.9275 18.2568 52.7067 18.2568H52.719C54.2162 18.2568 55.827 17.214 55.827 14.9243C55.827 13.9937 55.5383 13.1945 54.9936 12.6114C54.7113 12.3174 54.3704 12.0859 53.9929 11.9319C53.6155 11.778 53.2099 11.705 52.8025 11.7178ZM52.7641 12.7497C53.9411 12.7497 54.4762 13.8965 54.4762 14.9627C54.4762 16.2724 53.7454 17.2249 52.7395 17.2249H52.7272C51.735 17.2249 51.0151 16.2888 51.0151 14.9996C51.0151 13.8746 51.5557 12.7497 52.7641 12.7497Z" fill="white"/>
<path d="M59.826 11.778L59.748 11.7588C59.6417 11.731 59.5322 11.7172 59.4223 11.7178C59.0781 11.7245 58.7425 11.8265 58.4526 12.0122C58.1628 12.198 57.93 12.4603 57.78 12.7702L57.7417 11.8546H56.5715L56.5784 11.9655C56.6126 12.4828 56.6276 13.0603 56.6276 13.8473L56.6153 18.1172H57.9237V14.7875C57.923 14.6176 57.9349 14.4479 57.9593 14.2797C58.1071 13.4791 58.6436 12.9618 59.3347 12.9618C59.4522 12.9629 59.5696 12.9703 59.6864 12.9837L59.8233 12.9987L59.826 11.778Z" fill="white"/>
<path d="M62.7657 11.7054C61.0249 11.7054 59.8082 13.0959 59.8082 15.0872C59.8082 17.0032 61.018 18.2445 62.8903 18.2445C63.6011 18.2587 64.3068 18.1221 64.9609 17.8435L65.0389 17.8079L64.783 16.8376L64.6735 16.8814C64.1523 17.0919 63.5931 17.1917 63.0312 17.1743C62.4633 17.1743 61.1535 16.9868 61.0728 15.2788L65.2935 15.2911L65.3099 15.2076C65.3408 15.0269 65.3541 14.8435 65.3496 14.6602C65.3592 13.2985 64.6804 11.7054 62.7657 11.7054ZM62.6781 12.7004C62.8543 12.6926 63.0302 12.721 63.195 12.7839C63.3598 12.8467 63.5099 12.9427 63.6361 13.0658C64.0125 13.449 64.0782 14.0129 64.0864 14.2825H61.107C61.2247 13.5284 61.6996 12.7004 62.6781 12.7004Z" fill="white"/>
</g>
<defs>
<clipPath id="clip0_140_688">
<rect width="70" height="22.8977" fill="white"/>
</clipPath>
</defs>
</svg>
