<svg width="15" height="15" viewBox="0 0 15 15" fill="none" xmlns="http://www.w3.org/2000/svg">
<path d="M7.5 0C3.35826 0 0 3.35826 0 7.5C0 11.6417 3.35826 15 7.5 15C11.6417 15 15 11.6417 15 7.5C15 3.35826 11.6417 0 7.5 0ZM10.2958 10.6071C9.61607 11.2333 8.68862 11.6016 7.58203 11.6016C5.97991 11.6016 4.59375 10.6825 3.91908 9.34319C3.64118 8.78906 3.48214 8.16295 3.48214 7.5C3.48214 6.83705 3.64118 6.21094 3.91908 5.65681C4.59375 4.31585 5.97991 3.39676 7.58203 3.39676C8.68694 3.39676 9.6144 3.80357 10.3259 4.46484L9.15067 5.64174C8.72545 5.23493 8.18471 5.02902 7.5837 5.02902C6.51562 5.02902 5.61161 5.75056 5.2885 6.71987C5.20647 6.96596 5.1596 7.22879 5.1596 7.5C5.1596 7.7712 5.20647 8.03404 5.2885 8.28013C5.61161 9.24944 6.51562 9.97098 7.58203 9.97098C8.13449 9.97098 8.60324 9.82533 8.96987 9.57924C9.40513 9.28795 9.69308 8.85435 9.7885 8.3404H7.58203V6.75335H11.4442C11.4927 7.02288 11.5179 7.30245 11.5179 7.59208C11.5179 8.84263 11.0709 9.8923 10.2958 10.6071Z" fill="white"/>
</svg>
