<svg width="70" height="23" viewBox="0 0 70 23" fill="none" xmlns="http://www.w3.org/2000/svg">
<g clip-path="url(#clip0_140_656)">
<path d="M70 19.5074C70.0002 19.9077 69.9203 20.3041 69.765 20.674C69.6096 21.0439 69.3819 21.38 69.0947 21.6632C68.8074 21.9464 68.4664 22.171 68.0911 22.3244C67.7157 22.4777 67.3134 22.5567 66.907 22.5569H3.09435C2.27355 22.5566 1.4865 22.2351 0.906233 21.6633C0.325968 21.0914 -8.02088e-08 20.316 0 19.5074V3.04813C0.00036268 2.23982 0.326491 1.46473 0.906716 0.893176C1.48694 0.32162 2.27379 0.000364652 3.09435 7.39098e-06H66.907C67.7275 0.000364834 68.5142 0.321664 69.0942 0.893259C69.6742 1.46485 70 2.23995 70 3.04813V19.5074Z" fill="#231F20"/>
<path d="M5.25122 4.34233V11.9795V19.6166L13.0699 11.9795L5.25122 4.34233Z" fill="url(#paint0_linear_140_656)"/>
<path d="M15.1693 9.92897L12.0134 8.13327L5.25122 4.28705V4.34233L13.0699 11.9795L15.1693 9.92897Z" fill="url(#paint1_linear_140_656)"/>
<path d="M5.25122 19.6166V19.6733L12.0134 15.8257L15.1693 14.0313L13.0699 11.9795L5.25122 19.6166Z" fill="url(#paint2_linear_140_656)"/>
<path d="M15.1693 9.92897L13.0699 11.9795L15.1693 14.0313L18.7769 11.9795L15.1693 9.92897Z" fill="url(#paint3_linear_140_656)"/>
<path d="M54.4776 14.9669C54.2008 14.9702 53.9265 14.9155 53.6729 14.8065C53.4288 14.6985 53.2182 14.5287 53.0625 14.3144H53.0132C53.0451 14.559 53.0616 14.8053 53.0625 15.0519V16.8799H52.3782V10.4426H52.9338L53.0282 11.0506H53.0611C53.2156 10.8255 53.4269 10.6439 53.6742 10.5235C53.9261 10.4117 54.2 10.3565 54.4762 10.3617C55.0747 10.3617 55.5364 10.563 55.8612 10.9657C56.186 11.3683 56.3489 11.9341 56.3498 12.663C56.3498 13.3919 56.1846 13.9585 55.8544 14.363C55.6889 14.5628 55.4782 14.7216 55.239 14.8265C54.9999 14.9314 54.739 14.9795 54.4776 14.9669ZM54.3818 10.9333C53.9206 10.9333 53.588 11.0587 53.3813 11.3108C53.1747 11.5629 53.0707 11.962 53.0652 12.5106V12.663C53.0652 13.2867 53.1706 13.7334 53.3813 14.003C53.5935 14.2726 53.9288 14.4075 54.3982 14.4075C54.5785 14.4131 54.7573 14.3732 54.9176 14.2915C55.0778 14.2099 55.2142 14.0892 55.3138 13.941C55.5337 13.6309 55.6441 13.2027 55.645 12.6562C55.6459 12.1098 55.5355 11.6847 55.3138 11.3809C55.2081 11.2363 55.0676 11.1197 54.905 11.0416C54.7423 10.9634 54.5626 10.9263 54.3818 10.9333Z" fill="#F9F9F9"/>
<path d="M57.9305 14.8847H57.2462V8.57815H57.9305V14.8847Z" fill="#F9F9F9"/>
<path d="M61.8583 14.8847L61.7215 14.2524H61.6886C61.5133 14.4909 61.283 14.6849 61.0167 14.8186C60.751 14.925 60.4657 14.9755 60.1791 14.9669C59.7975 14.9888 59.4217 14.8669 59.128 14.6259C58.8735 14.3994 58.7476 14.0758 58.7476 13.6579C58.7476 12.7591 59.4775 12.2887 60.9373 12.2464L61.7037 12.2221V11.9525C61.7037 11.6038 61.6275 11.3463 61.4751 11.18C61.3228 11.0138 61.0792 10.9306 60.7443 10.9306C60.2985 10.9481 59.8624 11.0647 59.4688 11.2717L59.258 10.7567C59.4895 10.6351 59.7348 10.541 59.9889 10.4763C60.2489 10.4095 60.5166 10.3755 60.7854 10.3752C61.3228 10.3752 61.721 10.4929 61.9801 10.7284C62.2402 10.963 62.3688 11.3405 62.3688 11.8595V14.8901L61.8583 14.8847ZM60.3146 14.4155C60.4964 14.4259 60.6785 14.4008 60.8505 14.3416C61.0224 14.2823 61.1807 14.1902 61.3164 14.0704C61.442 13.9434 61.5394 13.792 61.6021 13.6257C61.6647 13.4595 61.6914 13.2822 61.6804 13.1052V12.7007L60.9961 12.729C60.4487 12.7479 60.0573 12.831 59.8219 12.9784C59.7043 13.0502 59.6087 13.1521 59.5453 13.2731C59.4819 13.3942 59.4531 13.53 59.462 13.666C59.4547 13.769 59.4711 13.8723 59.51 13.9683C59.5488 14.0642 59.6091 14.1502 59.6864 14.2201C59.8643 14.3591 60.0879 14.4286 60.3146 14.4155Z" fill="#F9F9F9"/>
<path d="M62.7603 10.4426H63.4924L64.4806 12.9757C64.6455 13.3842 64.7827 13.8031 64.8911 14.2295H64.9199C64.9555 14.0902 65.0298 13.8543 65.143 13.5217C65.2561 13.1892 65.6288 12.1628 66.2611 10.4426H66.9933L65.0567 15.5008C64.8638 16.0009 64.6462 16.3555 64.3834 16.5658C64.117 16.7786 63.7819 16.89 63.4391 16.8799C63.2314 16.88 63.0243 16.857 62.8218 16.8112V16.2719C62.9884 16.3058 63.1582 16.3221 63.3282 16.3205C63.7972 16.3205 64.132 16.0612 64.3328 15.5426L64.5832 14.9103L62.7603 10.4426Z" fill="#F9F9F9"/>
<path d="M41.8251 10.8551C42.0414 11.0331 42.4944 11.4038 42.4944 12.1102C42.4944 12.8167 42.0988 13.1227 41.702 13.4301C41.5802 13.5501 41.4378 13.6808 41.4378 13.8857C41.4429 13.9677 41.4679 14.0472 41.5108 14.1176C41.5537 14.188 41.6131 14.2472 41.6842 14.2902L42.0236 14.5504C42.4341 14.8941 42.8146 15.2109 42.8146 15.8527C42.8146 16.7262 41.9565 17.6052 40.3347 17.6052C38.9662 17.6052 38.3065 16.9649 38.3065 16.276C38.3065 15.9416 38.4762 15.4671 39.0332 15.1435C39.6176 14.7903 40.41 14.7391 40.8343 14.7148C40.6974 14.5477 40.551 14.3711 40.551 14.0839C40.5545 13.9576 40.5868 13.8337 40.6454 13.7213C40.5414 13.7307 40.4388 13.7401 40.3443 13.7401C39.3439 13.7401 38.7787 13.0054 38.7787 12.2815C38.7835 12.0437 38.8398 11.8096 38.9439 11.595C39.048 11.3804 39.1974 11.1902 39.3822 11.0371C39.9201 10.6003 40.5606 10.5248 41.071 10.5248H43.0131L42.4095 10.8592L41.8251 10.8551ZM41.1559 14.9818C41.0838 14.9723 41.011 14.9687 40.9383 14.971C40.6028 14.9779 40.2696 15.0282 39.9474 15.1206C39.7408 15.1948 39.1372 15.4172 39.1372 16.0778C39.1372 16.7384 39.7873 17.2116 40.7973 17.2116C41.702 17.2116 42.1837 16.7829 42.1837 16.2072C42.1837 15.7327 41.8717 15.4833 41.1559 14.9818ZM41.4296 13.2157C41.594 13.0298 41.678 12.7878 41.6636 12.5416C41.6636 11.8676 41.2531 10.8322 40.4757 10.8322C40.3499 10.8337 40.2259 10.8618 40.1121 10.9146C39.9983 10.9674 39.8974 11.0437 39.8161 11.1382C39.6691 11.3373 39.5957 11.5799 39.608 11.8258C39.608 12.4486 39.9762 13.4799 40.7878 13.4799C41.0275 13.473 41.2562 13.3789 41.4296 13.2157Z" fill="#F9F9F9"/>
<path d="M35.8868 14.8321C35.5887 14.8421 35.2916 14.7928 35.0132 14.6872C34.7348 14.5817 34.4808 14.422 34.2663 14.2177C34.0519 14.0134 33.8814 13.7687 33.7651 13.4981C33.6487 13.2275 33.5888 12.9366 33.589 12.6428C33.589 11.4294 34.5963 10.3887 36.0292 10.3887C36.3241 10.3824 36.6173 10.4345 36.8914 10.5419C37.1655 10.6493 37.4148 10.8099 37.6247 11.0141C37.8345 11.2184 38.0006 11.462 38.113 11.7307C38.2254 11.9993 38.2819 12.2875 38.2791 12.578C38.2791 13.6727 37.4224 14.8321 35.8868 14.8321ZM37.0638 14.0812C37.27 13.7776 37.3695 13.4158 37.3471 13.0512C37.3471 12.2343 36.9516 10.6772 35.7842 10.6772C35.4723 10.6799 35.1716 10.7917 34.9357 10.9926C34.5689 11.3162 34.5032 11.7247 34.5032 12.1251C34.5032 13.0418 34.9644 14.5517 36.1044 14.5517C36.2904 14.5517 36.4738 14.5092 36.6402 14.4275C36.8067 14.3459 36.9517 14.2273 37.0638 14.0812Z" fill="#F9F9F9"/>
<path d="M30.7834 14.8321C29.2848 14.8321 28.4856 13.6822 28.4856 12.6428C28.4856 11.4294 29.4929 10.3887 30.9244 10.3887C31.2189 10.3831 31.5115 10.4357 31.7849 10.5435C32.0584 10.6513 32.3071 10.812 32.5164 11.0161C32.7256 11.2202 32.8912 11.4637 33.0033 11.7319C33.1154 12.0002 33.1717 12.2879 33.1689 12.578C33.1689 13.6727 32.3176 14.8321 30.7834 14.8321ZM31.9604 14.0812C32.1656 13.7772 32.2646 13.4156 32.2423 13.0512C32.2423 12.2343 31.8468 10.6772 30.6794 10.6772C30.3679 10.6796 30.0675 10.7915 29.8323 10.9926C29.4641 11.3162 29.3984 11.7247 29.3984 12.1251C29.3984 13.0418 29.8596 14.5517 30.9997 14.5517C31.1859 14.5519 31.3695 14.5095 31.5362 14.4278C31.703 14.3462 31.8482 14.2275 31.9604 14.0812Z" fill="#F9F9F9"/>
<path d="M27.7657 14.6852L26.4122 14.9926C25.8961 15.085 25.3736 15.1377 24.8492 15.1503C22.2366 15.1503 21.243 13.2629 21.243 11.78C21.243 9.97077 22.6527 8.29235 25.0682 8.29235C25.5574 8.29195 26.0444 8.35634 26.5162 8.48378C26.966 8.59704 27.39 8.79329 27.7657 9.06213L26.9801 9.79956L26.6489 9.8737L26.8857 9.50027C26.5627 9.1929 25.9756 8.62399 24.8588 8.62399C23.363 8.62399 22.2366 9.74294 22.2366 11.3755C22.2366 13.1281 23.5245 14.7795 25.5869 14.7795C26.0004 14.7897 26.4111 14.7101 26.7899 14.5463V13.0459L25.3611 13.12L26.1179 12.7156H28.1256L27.8793 12.9488C27.8537 12.9657 27.832 12.9878 27.8157 13.0136C27.7994 13.0394 27.7889 13.0683 27.7848 13.0984C27.7739 13.182 27.7657 13.453 27.7657 13.546V14.6852Z" fill="#F9F9F9"/>
<path d="M44.8182 14.4155C44.5048 14.3886 44.4391 14.332 44.4391 13.968V8.69274C44.4391 8.67252 44.4391 8.6523 44.4391 8.63207C44.4774 8.30583 44.5759 8.25055 44.8661 8.08204H43.5112L42.8009 8.41772H43.5249V14.1756C43.5249 14.363 43.4866 14.3913 43.269 14.6703H44.9455L45.2958 14.4654C45.1398 14.4466 44.9783 14.4371 44.8182 14.4155Z" fill="#F9F9F9"/>
<path d="M48.6693 14.5045C48.5667 14.5598 48.464 14.6259 48.36 14.6717C48.072 14.7938 47.7607 14.8536 47.4472 14.847C47.001 14.8667 46.5609 14.7396 46.1963 14.4857C45.5298 14.0219 45.2383 13.2265 45.2383 12.5309C45.2383 11.0965 46.4235 10.3927 47.3911 10.3927C47.7323 10.3879 48.068 10.4776 48.36 10.6516C48.6889 10.8645 48.924 11.1919 49.0183 11.5683L46.8094 12.4486L46.0841 12.5039C46.3195 13.6795 47.1283 14.3643 48.022 14.3643C48.4256 14.3522 48.8198 14.241 49.1688 14.0408L48.6693 14.5045ZM47.7866 11.7436C47.9645 11.6788 48.0603 11.6236 48.0603 11.4942C48.0603 11.1234 47.6374 10.6974 47.1297 10.6974C46.7533 10.6974 46.0485 10.9846 46.0485 11.9849C46.0485 12.1426 46.0663 12.3098 46.0772 12.4769L47.7866 11.7436Z" fill="#F9F9F9"/>
<path d="M49.578 10.4561V11.0668H49.5028V10.4561H49.2975V10.3927H49.7833V10.4561H49.578Z" fill="#F9F9F9"/>
<path d="M50.4238 11.0668V10.4494L50.2322 11.0668H50.1734L49.9818 10.4494V11.0668H49.9133V10.3927H50.031L50.2048 10.932L50.3759 10.3927H50.495V11.0668H50.4238Z" fill="#F9F9F9"/>
<path d="M23.1235 6.47372H22.6527C22.6234 6.29032 22.5776 6.10985 22.5158 5.93447H21.8315C21.7674 6.10915 21.7215 6.28984 21.6947 6.47372H21.2622C21.2622 6.43597 21.3767 6.1268 21.6057 5.5462C21.7418 5.23489 21.8557 4.91461 21.9465 4.58769H22.5021C22.5858 4.90826 22.6896 5.22342 22.8128 5.53138C22.9354 5.8391 23.0391 6.15377 23.1235 6.47372ZM22.4392 5.6554C22.3418 5.39016 22.2582 5.12018 22.1887 4.84652H22.1641C22.1641 4.88337 22.0774 5.153 21.9041 5.6554H22.4392Z" fill="#F9F9FA"/>
<path d="M25.019 6.47372H24.655C24.655 6.43327 24.5181 6.22566 24.2444 5.84684C23.9707 5.46801 23.801 5.17277 23.7627 5.02852H23.738C23.7613 5.21867 23.7737 5.40996 23.775 5.60148C23.775 5.83965 23.7818 6.13039 23.7955 6.47372H23.4342C23.4488 6.17443 23.4561 5.84549 23.4561 5.48689C23.4561 5.12828 23.4488 4.82855 23.4342 4.58769H23.8708C23.8708 4.63891 23.9926 4.84383 24.2335 5.20108C24.4136 5.43898 24.563 5.69801 24.6782 5.97221H24.7001C24.678 5.78018 24.6661 5.58713 24.6646 5.39386C24.6646 5.13053 24.6577 4.8609 24.644 4.58499H25.0122C24.9985 4.82495 24.9916 5.12469 24.9916 5.48419C24.9985 5.85088 25.0053 6.17848 25.019 6.47372Z" fill="#F9F9FA"/>
<path d="M27.1471 5.46532C27.1491 5.72993 27.0516 5.98591 26.8733 6.18387C26.7799 6.28746 26.6639 6.36891 26.5341 6.42214C26.4042 6.47536 26.2638 6.49899 26.1234 6.49124C25.9783 6.49124 25.7785 6.4845 25.5239 6.47372C25.5367 6.18252 25.5431 5.85358 25.5431 5.48689C25.5431 5.13637 25.5431 4.83574 25.5239 4.58769H25.7812H25.9701H26.1329C26.486 4.58769 26.7433 4.67396 26.9021 4.84787C27.0601 5.01574 27.1477 5.23638 27.1471 5.46532ZM26.7447 5.52733C26.7498 5.35688 26.6914 5.19048 26.5805 5.05953C26.5164 4.99295 26.4381 4.94132 26.3512 4.90843C26.2643 4.87553 26.171 4.86222 26.0782 4.86944C26.0201 4.8705 25.9621 4.87455 25.9044 4.88158C25.914 5.07571 25.9194 5.27658 25.9194 5.48689C25.9194 5.71876 25.9194 5.9466 25.9331 6.17443C25.9963 6.18621 26.0604 6.19208 26.1247 6.19196C26.2127 6.19941 26.3013 6.18577 26.3828 6.1522C26.4643 6.11863 26.5363 6.06613 26.5928 5.99918C26.6973 5.86378 26.7518 5.69736 26.7474 5.52733H26.7447Z" fill="#F9F9FA"/>
<path d="M29.1137 6.47372H28.6785C28.6178 6.25283 28.53 6.04006 28.4171 5.8401C28.3815 5.79819 28.3362 5.76538 28.2849 5.74449C28.2337 5.7236 28.1781 5.71523 28.1229 5.72011H27.96C27.96 5.96817 27.96 6.21892 27.9737 6.47237H27.5631C27.575 6.18117 27.5814 5.85223 27.5823 5.48554C27.5823 5.13503 27.5754 4.83439 27.5631 4.58634H27.8177H28.0024H28.2611C28.7118 4.58634 28.9367 4.73778 28.9358 5.04066C28.9381 5.15479 28.9015 5.2664 28.8318 5.35758C28.762 5.44876 28.6632 5.51424 28.5512 5.54351V5.56508C28.6651 5.60415 28.7586 5.68608 28.8113 5.79291C28.9288 6.01227 29.0299 6.23981 29.1137 6.47372ZM28.5663 5.14176C28.5663 4.94898 28.4417 4.85327 28.1899 4.85327C28.1082 4.85242 28.0267 4.85919 27.9463 4.87349C27.9573 5.02313 27.9627 5.21861 27.9627 5.45858H28.0996C28.4075 5.46127 28.5622 5.35477 28.5622 5.14176H28.5663Z" fill="#F9F9FA"/>
<path d="M31.2214 5.49632C31.2315 5.76793 31.1333 6.03265 30.9477 6.23375C30.8616 6.32798 30.7559 6.40287 30.6378 6.45334C30.5198 6.50382 30.3921 6.5287 30.2634 6.5263C30.1419 6.52895 30.0211 6.5063 29.9091 6.45984C29.7971 6.41338 29.6963 6.34415 29.6133 6.25667C29.526 6.16573 29.4579 6.05858 29.413 5.94146C29.3682 5.82435 29.3474 5.69961 29.3519 5.57452C29.3418 5.30291 29.44 5.03819 29.6256 4.83709C29.7115 4.74258 29.8171 4.6675 29.9353 4.617C30.0534 4.5665 30.1812 4.54178 30.3099 4.54454C30.4314 4.54197 30.5521 4.56466 30.6641 4.61111C30.7761 4.65757 30.8769 4.72676 30.96 4.81417C31.0473 4.90511 31.1154 5.01226 31.1603 5.12937C31.2051 5.24648 31.2259 5.37122 31.2214 5.49632ZM30.8108 5.53811C30.8187 5.36139 30.7629 5.1876 30.6534 5.0474C30.6079 4.98845 30.5491 4.94073 30.4816 4.90798C30.4142 4.87522 30.3399 4.85834 30.2648 4.85866C30.1931 4.85929 30.1226 4.8769 30.0592 4.90998C29.9959 4.94306 29.9415 4.99065 29.9007 5.04874C29.7968 5.18679 29.7437 5.35559 29.7502 5.52733C29.7423 5.70427 29.7986 5.87819 29.9089 6.01805C29.9543 6.07689 30.0128 6.12456 30.08 6.15731C30.1472 6.19006 30.2213 6.20699 30.2962 6.20678C30.3679 6.20615 30.4384 6.18855 30.5018 6.15547C30.5651 6.12239 30.6195 6.0748 30.6603 6.0167C30.766 5.87926 30.821 5.71047 30.8163 5.53811H30.8108Z" fill="#F9F9FA"/>
<path d="M32.0534 6.47372H31.6428C31.6547 6.17443 31.6606 5.84549 31.6606 5.48689C31.6606 5.12828 31.6547 4.82855 31.6428 4.58769H32.0534C32.0397 4.8317 32.0342 5.12694 32.0342 5.48689C32.0342 5.84684 32.0397 6.17983 32.0534 6.47372Z" fill="#F9F9FA"/>
<path d="M34.1843 5.46532C34.1864 5.72993 34.0888 5.98591 33.9106 6.18387C33.8172 6.28746 33.7012 6.36891 33.5713 6.42214C33.4414 6.47536 33.301 6.49899 33.1606 6.49124C33.0155 6.49124 32.8157 6.4845 32.5612 6.47372C32.573 6.18252 32.5794 5.85358 32.5803 5.48689C32.5803 5.13637 32.5735 4.83574 32.5612 4.58769H32.8185H33.0059H33.1702C33.5233 4.58769 33.7806 4.67396 33.9393 4.84787C34.0973 5.01574 34.1849 5.23638 34.1843 5.46532ZM33.7819 5.52733C33.787 5.35688 33.7286 5.19048 33.6177 5.05953C33.5537 4.99295 33.4753 4.94132 33.3884 4.90843C33.3015 4.87553 33.2082 4.86222 33.1154 4.86944C33.0573 4.8705 32.9993 4.87455 32.9416 4.88158C32.9512 5.07571 32.9567 5.27658 32.9567 5.48689C32.9567 5.71876 32.9567 5.9466 32.9704 6.17443C33.0335 6.18628 33.0977 6.19215 33.162 6.19196C33.25 6.19941 33.3385 6.18577 33.42 6.1522C33.5015 6.11863 33.5736 6.06613 33.63 5.99918C33.7335 5.86343 33.7871 5.69704 33.7819 5.52733Z" fill="#F9F9FA"/>
<path d="M37.0105 6.47372H36.5397C36.5108 6.29025 36.465 6.10975 36.4028 5.93447H35.7186C35.6551 6.10936 35.6093 6.28998 35.5817 6.47372H35.1396C35.1396 6.43597 35.2542 6.1268 35.4832 5.5462C35.6202 5.23496 35.735 4.91468 35.8267 4.58769H36.3823C36.4653 4.90847 36.569 5.22369 36.693 5.53138C36.8176 5.83906 36.9236 6.15372 37.0105 6.47372ZM36.3262 5.6554C36.228 5.39029 36.1439 5.12029 36.0744 4.84652H36.0511C36.0511 4.88337 35.9644 5.153 35.7911 5.6554H36.3262Z" fill="#F9F9FA"/>
<path d="M38.7252 5.08245C38.7321 5.18286 38.7114 5.28325 38.6655 5.37313C38.6195 5.463 38.5499 5.53907 38.4638 5.59339C38.2713 5.70775 38.0494 5.76487 37.8247 5.75786C37.7919 5.75966 37.759 5.75966 37.7262 5.75786C37.7262 5.93986 37.7262 6.17847 37.7426 6.47641H37.332C37.3448 6.1978 37.3512 5.86886 37.3512 5.48958C37.3512 5.14311 37.3443 4.84248 37.332 4.59038H37.588H37.796H38.0697C38.2356 4.58508 38.3994 4.62824 38.5405 4.71441C38.6005 4.75518 38.649 4.81039 38.6814 4.8748C38.7137 4.93921 38.7288 5.01068 38.7252 5.08245ZM38.3461 5.16198C38.3461 4.95437 38.2093 4.85192 37.9287 4.85192C37.8547 4.85207 37.781 4.8593 37.7084 4.87349C37.7193 5.05548 37.7248 5.26175 37.7248 5.49363H37.8097C38.1664 5.49543 38.3452 5.38488 38.3461 5.16198Z" fill="#F9F9FA"/>
<path d="M40.4893 5.08245C40.4959 5.18282 40.4751 5.28311 40.4291 5.37293C40.3832 5.46275 40.3137 5.53886 40.2279 5.59339C40.035 5.70793 39.8126 5.76505 39.5874 5.75786C39.5546 5.75966 39.5217 5.75966 39.4889 5.75786C39.4889 5.93986 39.4889 6.17848 39.5053 6.47641H39.0947C39.1075 6.1978 39.1139 5.86886 39.1139 5.48958C39.1139 5.14311 39.107 4.84248 39.0947 4.59038H39.3507H39.5587H39.8324C39.9987 4.5853 40.1629 4.62843 40.3046 4.71441C40.3646 4.75519 40.4131 4.81039 40.4454 4.8748C40.4778 4.93921 40.4929 5.01068 40.4893 5.08245ZM40.1088 5.16199C40.1088 4.95437 39.972 4.85192 39.6983 4.85192C39.6243 4.85214 39.5505 4.85936 39.4779 4.87349C39.4889 5.05549 39.4944 5.26175 39.4944 5.49363H39.5792C39.9309 5.49632 40.1088 5.38308 40.1088 5.16199Z" fill="#F9F9FA"/>
<path d="M43.3716 5.49632C43.3817 5.76793 43.2835 6.03265 43.0979 6.23375C43.0117 6.32791 42.906 6.40275 42.788 6.45322C42.6699 6.50369 42.5423 6.52861 42.4136 6.5263C42.2921 6.52903 42.1713 6.50643 42.0593 6.45996C41.9472 6.41349 41.8465 6.34421 41.7635 6.25667C41.6762 6.16573 41.6081 6.05858 41.5632 5.94146C41.5184 5.82435 41.4976 5.69962 41.5021 5.57452C41.4924 5.30298 41.5906 5.03842 41.7758 4.83709C41.8619 4.74286 41.9676 4.66797 42.0857 4.61749C42.2037 4.56702 42.3314 4.54214 42.4601 4.54454C42.5816 4.54197 42.7023 4.56466 42.8143 4.61111C42.9263 4.65757 43.0272 4.72676 43.1102 4.81417C43.1975 4.90511 43.2656 5.01226 43.3105 5.12937C43.3554 5.24649 43.3761 5.37122 43.3716 5.49632ZM42.961 5.53811C42.9694 5.36154 42.9141 5.18773 42.805 5.0474C42.7594 4.98853 42.7006 4.94086 42.6331 4.90812C42.5657 4.87537 42.4915 4.85844 42.4163 4.85866C42.3446 4.85918 42.2741 4.87674 42.2107 4.90983C42.1473 4.94292 42.093 4.99057 42.0523 5.04874C41.9484 5.18679 41.8953 5.35559 41.9017 5.52733C41.8932 5.70437 41.9495 5.87853 42.0605 6.01805C42.1058 6.07696 42.1643 6.12469 42.2315 6.15745C42.2988 6.19021 42.3728 6.2071 42.4478 6.20679C42.5195 6.20615 42.59 6.18855 42.6534 6.15547C42.7167 6.12239 42.7711 6.0748 42.8118 6.0167C42.9166 5.87891 42.9706 5.71015 42.9651 5.53811H42.961Z" fill="#F9F9FA"/>
<path d="M45.3642 6.47372H45.0015C45.0015 6.43327 44.8647 6.22566 44.591 5.84684C44.3172 5.46801 44.1489 5.17277 44.1092 5.02852H44.086C44.1093 5.21867 44.1216 5.40996 44.1229 5.60148C44.1229 5.83965 44.1297 6.13039 44.1434 6.47372H43.7808C43.7963 6.17443 43.804 5.84549 43.804 5.48689C43.804 5.12828 43.7963 4.82855 43.7808 4.58769H44.2173C44.2173 4.63891 44.3387 4.84338 44.5814 5.20108C44.7607 5.43924 44.9097 5.69823 45.0248 5.97221H45.0467C45.025 5.78016 45.0136 5.58711 45.0125 5.39386C45.0125 5.13053 45.0052 4.8609 44.9906 4.58499H45.3587C45.345 4.82495 45.3382 5.12469 45.3382 5.48419C45.3492 5.85088 45.3491 6.17848 45.3642 6.47372Z" fill="#F9F9FA"/>
</g>
<defs>
<linearGradient id="paint0_linear_140_656" x1="9.15988" y1="4.34233" x2="9.15988" y2="19.6166" gradientUnits="userSpaceOnUse">
<stop stop-color="#257CB0"/>
<stop offset="0.21" stop-color="#3C8FB3"/>
<stop offset="0.74" stop-color="#73BDBA"/>
<stop offset="1" stop-color="#89CFBD"/>
</linearGradient>
<linearGradient id="paint1_linear_140_656" x1="5.24985" y1="8.13327" x2="15.1693" y2="8.13327" gradientUnits="userSpaceOnUse">
<stop stop-color="#52C1AD"/>
<stop offset="1" stop-color="#DEE89A"/>
</linearGradient>
<linearGradient id="paint2_linear_140_656" x1="10.2096" y1="11.9795" x2="10.2096" y2="19.6733" gradientUnits="userSpaceOnUse">
<stop stop-color="#EC413D"/>
<stop offset="0.19" stop-color="#D74352"/>
<stop offset="0.74" stop-color="#A04888"/>
<stop offset="1" stop-color="#8A4A9D"/>
</linearGradient>
<linearGradient id="paint3_linear_140_656" x1="15.9234" y1="9.92897" x2="15.9234" y2="14.0313" gradientUnits="userSpaceOnUse">
<stop stop-color="#F58879"/>
<stop offset="0.62" stop-color="#FBB276"/>
<stop offset="1" stop-color="#FEC874"/>
</linearGradient>
<clipPath id="clip0_140_656">
<rect width="70" height="22.5556" fill="white"/>
</clipPath>
</defs>
</svg>
